<svg width="24" height="24" viewBox="0 0 24 24" fill="none" xmlns="http://www.w3.org/2000/svg">
<path d="M7.27855 10.2011H6.18764C6.1153 10.2011 6.04594 10.1724 5.99479 10.1212C5.94364 10.0701 5.91491 10.0007 5.91491 9.92837V6.11019C5.91491 6.03786 5.94364 5.96849 5.99479 5.91734C6.04594 5.8662 6.1153 5.83746 6.18764 5.83746H7.27855C7.35088 5.83746 7.42025 5.8662 7.47139 5.91734C7.52254 5.96849 7.55127 6.03786 7.55127 6.11019V9.92837C7.55127 10.0007 7.52254 10.0701 7.47139 10.1212C7.42025 10.1724 7.35088 10.2011 7.27855 10.2011Z" fill="#A0041E"/>
<path d="M4.90909 10.9091L12 3.81818L19.0909 10.9091V20.1818H4.90909V10.9091Z" fill="#FFE8B6"/>
<path d="M12 10.9091H12.5455V19.6364H12V10.9091Z" fill="#FFCC4D"/>
<path d="M19.0909 11.4545C19.0193 11.4546 18.9483 11.4405 18.8821 11.4131C18.816 11.3857 18.7559 11.3455 18.7053 11.2947L12 4.58945L5.29473 11.2947C5.24441 11.3468 5.18422 11.3884 5.11768 11.417C5.05113 11.4455 4.97955 11.4606 4.90713 11.4612C4.8347 11.4619 4.76288 11.4481 4.69584 11.4206C4.62881 11.3932 4.56791 11.3527 4.51669 11.3015C4.46548 11.2503 4.42498 11.1894 4.39755 11.1223C4.37013 11.0553 4.35632 10.9835 4.35695 10.9111C4.35758 10.8386 4.37263 10.7671 4.40122 10.7005C4.4298 10.634 4.47136 10.5738 4.52345 10.5235L11.6144 3.43254C11.665 3.38184 11.7251 3.34162 11.7913 3.31418C11.8574 3.28674 11.9284 3.27261 12 3.27261C12.0716 3.27261 12.1426 3.28674 12.2087 3.31418C12.2749 3.34162 12.335 3.38184 12.3856 3.43254L19.4765 10.5235C19.5531 10.5996 19.6052 10.6968 19.6264 10.8027C19.6476 10.9086 19.6369 11.0184 19.5956 11.1181C19.5542 11.2179 19.4842 11.3031 19.3944 11.363C19.3045 11.4229 19.1989 11.4548 19.0909 11.4545V11.4545Z" fill="#66757F"/>
<path d="M12 11.4545C11.892 11.4548 11.7864 11.4229 11.6966 11.363C11.6067 11.3031 11.5367 11.2179 11.4954 11.1181C11.454 11.0184 11.4433 10.9086 11.4645 10.8027C11.4857 10.6968 11.5378 10.5996 11.6144 10.5234L15.1598 6.97798C15.2101 6.92589 15.2703 6.88433 15.3369 6.85575C15.4034 6.82716 15.475 6.81211 15.5474 6.81148C15.6198 6.81085 15.6917 6.82465 15.7587 6.85208C15.8257 6.87951 15.8866 6.92001 15.9379 6.97122C15.9891 7.02244 16.0296 7.08334 16.057 7.15037C16.0844 7.21741 16.0982 7.28923 16.0976 7.36166C16.097 7.43408 16.0819 7.50566 16.0533 7.5722C16.0247 7.63875 15.9832 7.69894 15.9311 7.74926L12.3856 11.2947C12.3351 11.3454 12.2749 11.3857 12.2088 11.4131C12.1426 11.4405 12.0716 11.4546 12 11.4545V11.4545Z" fill="#66757F"/>
<path d="M7.63636 16.3636H9.81818V19.6364H7.63636V16.3636Z" fill="#C1694F"/>
<path d="M7.63636 11.4545H9.81818V13.6363H7.63636V11.4545ZM14.4545 11.4545H16.6364V13.6363H14.4545V11.4545ZM14.4545 16.3636H16.6364V18.5454H14.4545V16.3636Z" fill="#55ACEE"/>
<path d="M20.4545 20.4545C20.4545 20.6715 20.3683 20.8796 20.2149 21.0331C20.0615 21.1865 19.8534 21.2727 19.6364 21.2727H4.36364C4.14664 21.2727 3.93853 21.1865 3.7851 21.0331C3.63166 20.8796 3.54546 20.6715 3.54546 20.4545C3.54546 20.2375 3.63166 20.0294 3.7851 19.876C3.93853 19.7226 4.14664 19.6364 4.36364 19.6364H19.6364C19.8534 19.6364 20.0615 19.7226 20.2149 19.876C20.3683 20.0294 20.4545 20.2375 20.4545 20.4545Z" fill="#5C913B"/>
</svg>
