<svg width="24" height="24" viewBox="0 0 24 24" fill="none" xmlns="http://www.w3.org/2000/svg">
<path d="M19.6364 2.18182H7.63636C7.05771 2.18182 6.50275 2.41169 6.09358 2.82086C5.68441 3.23003 5.45454 3.78499 5.45454 4.36364V17.4546H4.36363C3.78498 17.4546 3.23003 17.6844 2.82086 18.0936C2.41169 18.5028 2.18182 19.0577 2.18182 19.6364C2.18182 20.215 2.41169 20.77 2.82086 21.1791C3.23003 21.5883 3.78498 21.8182 4.36363 21.8182H17.4545C18.0332 21.8182 18.5882 21.5883 18.9973 21.1791C19.4065 20.77 19.6364 20.215 19.6364 19.6364V6.54546C20.215 6.54546 20.77 6.31559 21.1791 5.90642C21.5883 5.49725 21.8182 4.9423 21.8182 4.36364C21.8182 3.78499 21.5883 3.23003 21.1791 2.82086C20.77 2.41169 20.215 2.18182 19.6364 2.18182Z" fill="#FFD983"/>
<path d="M6.54546 7.63636H19.6364V6.54545H7.63637L6.54546 6V7.63636Z" fill="#E39F3D"/>
<path d="M7.63636 2.18182C7.05771 2.18182 6.50275 2.41169 6.09358 2.82086C5.68441 3.23003 5.45454 3.78499 5.45454 4.36364V17.7573C5.12434 17.561 4.74774 17.4565 4.36364 17.4546C3.93211 17.4546 3.51028 17.5825 3.15148 17.8223C2.79268 18.062 2.51303 18.4027 2.3479 18.8014C2.18276 19.2001 2.13955 19.6388 2.22374 20.062C2.30793 20.4853 2.51572 20.874 2.82086 21.1791C3.12599 21.4843 3.51475 21.6921 3.93798 21.7763C4.36121 21.8605 4.79991 21.8172 5.19858 21.6521C5.59726 21.487 5.93801 21.2073 6.17775 20.8485C6.41749 20.4897 6.54545 20.0679 6.54545 19.6364V6.24273C6.86727 6.43037 7.23709 6.54546 7.63636 6.54546C8.21502 6.54546 8.76997 6.31559 9.17914 5.90642C9.58831 5.49725 9.81818 4.9423 9.81818 4.36364C9.81818 3.78499 9.58831 3.23003 9.17914 2.82086C8.76997 2.41169 8.21502 2.18182 7.63636 2.18182Z" fill="#FFE8B6"/>
<path d="M8.72727 4.36364C8.72723 4.50694 8.69897 4.64882 8.6441 4.7812C8.58923 4.91357 8.50883 5.03384 8.40748 5.13514C8.30613 5.23644 8.18582 5.31679 8.05341 5.37159C7.92101 5.4264 7.77911 5.45459 7.63581 5.45455C7.49252 5.45451 7.35063 5.42625 7.21826 5.37138C7.08588 5.31651 6.96561 5.23611 6.86431 5.13476C6.76301 5.03341 6.68267 4.9131 6.62786 4.78069C6.57306 4.64829 6.54487 4.50639 6.54491 4.3631C6.54498 4.0737 6.66001 3.79618 6.8647 3.59159C7.06939 3.38701 7.34696 3.27211 7.63636 3.27219C7.92576 3.27226 8.20328 3.38729 8.40786 3.59198C8.61245 3.79667 8.72734 4.07424 8.72727 4.36364V4.36364ZM5.45454 19.6364C5.45447 19.9258 5.33944 20.2033 5.13475 20.4079C4.93006 20.6125 4.65249 20.7273 4.36309 20.7273C4.07369 20.7272 3.79617 20.6122 3.59159 20.4075C3.387 20.2028 3.27211 19.9252 3.27218 19.6358C3.27225 19.3464 3.38728 19.0689 3.59197 18.8643C3.69332 18.763 3.81363 18.6827 3.94604 18.6279C4.07844 18.5731 4.22034 18.5449 4.36363 18.5449C4.50693 18.5449 4.64882 18.5732 4.78119 18.6281C4.91356 18.6829 5.03384 18.7634 5.13514 18.8647C5.23644 18.9661 5.31678 19.0864 5.37159 19.2188C5.42639 19.3512 5.45458 19.4931 5.45454 19.6364V19.6364ZM18.5455 10.3636C18.5455 10.5083 18.488 10.647 18.3857 10.7493C18.2834 10.8516 18.1447 10.9091 18 10.9091H8.18182C8.03715 10.9091 7.89841 10.8516 7.79612 10.7493C7.69383 10.647 7.63636 10.5083 7.63636 10.3636C7.63636 10.219 7.69383 10.0802 7.79612 9.97795C7.89841 9.87565 8.03715 9.81819 8.18182 9.81819H18C18.1447 9.81819 18.2834 9.87565 18.3857 9.97795C18.488 10.0802 18.5455 10.219 18.5455 10.3636ZM18.5455 12.5455C18.5455 12.6901 18.488 12.8289 18.3857 12.9312C18.2834 13.0334 18.1447 13.0909 18 13.0909H8.18182C8.03715 13.0909 7.89841 13.0334 7.79612 12.9312C7.69383 12.8289 7.63636 12.6901 7.63636 12.5455C7.63636 12.4008 7.69383 12.2621 7.79612 12.1598C7.89841 12.0575 8.03715 12 8.18182 12H18C18.1447 12 18.2834 12.0575 18.3857 12.1598C18.488 12.2621 18.5455 12.4008 18.5455 12.5455ZM18.5455 14.7273C18.5455 14.8719 18.488 15.0107 18.3857 15.113C18.2834 15.2153 18.1447 15.2727 18 15.2727H8.18182C8.03715 15.2727 7.89841 15.2153 7.79612 15.113C7.69383 15.0107 7.63636 14.8719 7.63636 14.7273C7.63636 14.5826 7.69383 14.4439 7.79612 14.3416C7.89841 14.2393 8.03715 14.1818 8.18182 14.1818H18C18.1447 14.1818 18.2834 14.2393 18.3857 14.3416C18.488 14.4439 18.5455 14.5826 18.5455 14.7273ZM18.5455 16.9091C18.5455 17.0538 18.488 17.1925 18.3857 17.2948C18.2834 17.3971 18.1447 17.4546 18 17.4546H8.18182C8.03715 17.4546 7.89841 17.3971 7.79612 17.2948C7.69383 17.1925 7.63636 17.0538 7.63636 16.9091C7.63636 16.7644 7.69383 16.6257 7.79612 16.5234C7.89841 16.4211 8.03715 16.3636 8.18182 16.3636H18C18.1447 16.3636 18.2834 16.4211 18.3857 16.5234C18.488 16.6257 18.5455 16.7644 18.5455 16.9091Z" fill="#C1694F"/>
</svg>
