<svg width="24" height="24" viewBox="0 0 24 24" fill="none" xmlns="http://www.w3.org/2000/svg">
<path d="M5.45454 10.3636H18.5455V11.4546H5.45454V10.3636ZM13.6364 18.5455C13.6364 19.7498 13.2044 20.7273 12 20.7273C10.7951 20.7273 10.3636 19.7498 10.3636 18.5455C10.3636 17.3411 10.7951 17.4546 12 17.4546C13.2044 17.4546 13.6364 17.3411 13.6364 18.5455Z" fill="#292F33"/>
<path d="M12 19.0909C8.38527 19.0909 6.54546 19.8235 6.54546 20.7273V21.8182H17.4545V20.7273C17.4545 19.8235 15.6147 19.0909 12 19.0909Z" fill="#66757F"/>
<path d="M12 2.18182C10.698 2.18182 9.44938 2.69903 8.52875 3.61966C7.60812 4.5403 7.09091 5.78894 7.09091 7.09091V10.9091H16.9091V7.09091C16.9091 5.78894 16.3919 4.5403 15.4713 3.61966C14.5506 2.69903 13.302 2.18182 12 2.18182V2.18182Z" fill="#99AAB5"/>
<path d="M10.6364 4.36363C11.0882 4.36363 11.4546 3.99732 11.4546 3.54545C11.4546 3.09358 11.0882 2.72726 10.6364 2.72726C10.1845 2.72726 9.81819 3.09358 9.81819 3.54545C9.81819 3.99732 10.1845 4.36363 10.6364 4.36363Z" fill="#292F33"/>
<path d="M13.3636 4.36363C13.8155 4.36363 14.1818 3.99732 14.1818 3.54545C14.1818 3.09358 13.8155 2.72726 13.3636 2.72726C12.9118 2.72726 12.5455 3.09358 12.5455 3.54545C12.5455 3.99732 12.9118 4.36363 13.3636 4.36363Z" fill="#292F33"/>
<path d="M11.7273 6.54545C12.1791 6.54545 12.5455 6.17914 12.5455 5.72727C12.5455 5.2754 12.1791 4.90909 11.7273 4.90909C11.2754 4.90909 10.9091 5.2754 10.9091 5.72727C10.9091 6.17914 11.2754 6.54545 11.7273 6.54545Z" fill="#292F33"/>
<path d="M14.4545 6.54545C14.9064 6.54545 15.2727 6.17914 15.2727 5.72727C15.2727 5.2754 14.9064 4.90909 14.4545 4.90909C14.0027 4.90909 13.6364 5.2754 13.6364 5.72727C13.6364 6.17914 14.0027 6.54545 14.4545 6.54545Z" fill="#292F33"/>
<path d="M9.00001 6.54545C9.45187 6.54545 9.81819 6.17914 9.81819 5.72727C9.81819 5.2754 9.45187 4.90909 9.00001 4.90909C8.54814 4.90909 8.18182 5.2754 8.18182 5.72727C8.18182 6.17914 8.54814 6.54545 9.00001 6.54545Z" fill="#292F33"/>
<path d="M10.6364 8.72728C11.0882 8.72728 11.4546 8.36096 11.4546 7.90909C11.4546 7.45722 11.0882 7.09091 10.6364 7.09091C10.1845 7.09091 9.81819 7.45722 9.81819 7.90909C9.81819 8.36096 10.1845 8.72728 10.6364 8.72728Z" fill="#292F33"/>
<path d="M7.90909 8.72728C8.36096 8.72728 8.72728 8.36096 8.72728 7.90909C8.72728 7.45722 8.36096 7.09091 7.90909 7.09091C7.45722 7.09091 7.09091 7.45722 7.09091 7.90909C7.09091 8.36096 7.45722 8.72728 7.90909 8.72728Z" fill="#292F33"/>
<path d="M13.3636 8.72728C13.8155 8.72728 14.1818 8.36096 14.1818 7.90909C14.1818 7.45722 13.8155 7.09091 13.3636 7.09091C12.9118 7.09091 12.5455 7.45722 12.5455 7.90909C12.5455 8.36096 12.9118 8.72728 13.3636 8.72728Z" fill="#292F33"/>
<path d="M16.0909 8.72728C16.5428 8.72728 16.9091 8.36096 16.9091 7.90909C16.9091 7.45722 16.5428 7.09091 16.0909 7.09091C15.639 7.09091 15.2727 7.45722 15.2727 7.90909C15.2727 8.36096 15.639 8.72728 16.0909 8.72728Z" fill="#292F33"/>
<path d="M11.7273 10.9091C12.1791 10.9091 12.5455 10.5428 12.5455 10.0909C12.5455 9.63902 12.1791 9.27271 11.7273 9.27271C11.2754 9.27271 10.9091 9.63902 10.9091 10.0909C10.9091 10.5428 11.2754 10.9091 11.7273 10.9091Z" fill="#292F33"/>
<path d="M14.4545 10.9091C14.9064 10.9091 15.2727 10.5428 15.2727 10.0909C15.2727 9.63902 14.9064 9.27271 14.4545 9.27271C14.0027 9.27271 13.6364 9.63902 13.6364 10.0909C13.6364 10.5428 14.0027 10.9091 14.4545 10.9091Z" fill="#292F33"/>
<path d="M9.00001 10.9091C9.45187 10.9091 9.81819 10.5428 9.81819 10.0909C9.81819 9.63902 9.45187 9.27271 9.00001 9.27271C8.54814 9.27271 8.18182 9.63902 8.18182 10.0909C8.18182 10.5428 8.54814 10.9091 9.00001 10.9091Z" fill="#292F33"/>
<path d="M7.09091 10.3975V11.4546C7.09091 14.166 9.28855 16.3636 12 16.3636C14.7115 16.3636 16.9091 14.166 16.9091 11.4546V10.3975H7.09091Z" fill="#66757F"/>
<path d="M18.5455 9.81818C18.4008 9.81818 18.262 9.87564 18.1598 9.97794C18.0575 10.0802 18 10.219 18 10.3636V11.4545C18 14.7676 15.3136 17.4545 12 17.4545C8.68636 17.4545 6 14.7676 6 11.4545V10.3636C6 10.219 5.94253 10.0802 5.84024 9.97794C5.73794 9.87564 5.59921 9.81818 5.45454 9.81818C5.30988 9.81818 5.17114 9.87564 5.06885 9.97794C4.96656 10.0802 4.90909 10.219 4.90909 10.3636V11.4545C4.90909 15.3709 8.08363 18.5454 12 18.5454C15.9164 18.5454 19.0909 15.3709 19.0909 11.4545V10.3636C19.0909 10.219 19.0334 10.0802 18.9311 9.97794C18.8289 9.87564 18.6901 9.81818 18.5455 9.81818Z" fill="#66757F"/>
</svg>
