<svg width="24" height="24" viewBox="0 0 24 24" fill="none" xmlns="http://www.w3.org/2000/svg">
<path d="M21.2727 13.0909C21.2727 14.2958 20.2958 14.1818 19.0909 14.1818H4.90909C3.70418 14.1818 2.72727 14.2958 2.72727 13.0909L3.81818 6.54544C3.88636 5.4998 4.79509 4.36362 6 4.36362H18C19.2049 4.36362 20.0678 5.56798 20.1818 6.54544L21.2727 13.0909Z" fill="#67757F"/>
<path d="M17.4545 9.27272C17.4545 9.56205 17.3396 9.83953 17.135 10.0441C16.9304 10.2487 16.653 10.3636 16.3636 10.3636H7.63637C7.34704 10.3636 7.06956 10.2487 6.86498 10.0441C6.66039 9.83953 6.54546 9.56205 6.54546 9.27272V4.90909C6.54546 4.61976 6.66039 4.34228 6.86498 4.1377C7.06956 3.93311 7.34704 3.81818 7.63637 3.81818H16.3636C16.653 3.81818 16.9304 3.93311 17.135 4.1377C17.3396 4.34228 17.4545 4.61976 17.4545 4.90909V9.27272Z" fill="#CCD6DD"/>
<path d="M18.5455 11.4545C18.5455 11.7439 18.4305 12.0213 18.2259 12.2259C18.0213 12.4305 17.7439 12.5455 17.4545 12.5455H6.54545C6.25613 12.5455 5.97865 12.4305 5.77406 12.2259C5.56948 12.0213 5.45454 11.7439 5.45454 11.4545V7.09091C5.45454 6.80158 5.56948 6.52411 5.77406 6.31952C5.97865 6.11493 6.25613 6 6.54545 6H17.4545C17.7439 6 18.0213 6.11493 18.2259 6.31952C18.4305 6.52411 18.5455 6.80158 18.5455 7.09091V11.4545Z" fill="#E1E8ED"/>
<path d="M19.6364 13.6364C19.6364 13.9257 19.5214 14.2032 19.3168 14.4078C19.1123 14.6123 18.8348 14.7273 18.5455 14.7273H5.45454C5.16521 14.7273 4.88774 14.6123 4.68315 14.4078C4.47857 14.2032 4.36363 13.9257 4.36363 13.6364V9.27273C4.36363 8.98341 4.47857 8.70593 4.68315 8.50134C4.88774 8.29676 5.16521 8.18182 5.45454 8.18182H18.5455C18.8348 8.18182 19.1123 8.29676 19.3168 8.50134C19.5214 8.70593 19.6364 8.98341 19.6364 9.27273V13.6364Z" fill="#F5F8FA"/>
<path d="M21.2727 19.0909C21.2727 19.6696 21.0429 20.2245 20.6337 20.6337C20.2245 21.0429 19.6696 21.2727 19.0909 21.2727H4.90909C4.33044 21.2727 3.77548 21.0429 3.36631 20.6337C2.95714 20.2245 2.72727 19.6696 2.72727 19.0909V13.0909C2.72727 12.5123 2.95714 11.9573 3.36631 11.5481C3.77548 11.139 4.33044 10.9091 4.90909 10.9091H19.0909C19.6696 10.9091 20.2245 11.139 20.6337 11.5481C21.0429 11.9573 21.2727 12.5123 21.2727 13.0909V19.0909Z" fill="#9AAAB4"/>
<path d="M14.1818 2.72726H11.4545C11.1652 2.72726 10.8877 2.8422 10.6832 3.04678C10.4786 3.25137 10.3636 3.52885 10.3636 3.81817V4.36363H12.5455C12.8348 4.36363 13.1123 4.47856 13.3168 4.68315C13.5214 4.88773 13.6364 5.16521 13.6364 5.45454H14.1818C14.4711 5.45454 14.7486 5.3396 14.9532 5.13502C15.1578 4.93043 15.2727 4.65296 15.2727 4.36363V3.81817C15.2727 3.52885 15.1578 3.25137 14.9532 3.04678C14.7486 2.8422 14.4711 2.72726 14.1818 2.72726V2.72726Z" fill="#FCAB40"/>
<path d="M12 4.90909H9.27273C8.9834 4.90909 8.70592 5.02402 8.50134 5.22861C8.29675 5.43319 8.18182 5.71067 8.18182 6V6.54545H10.3636C10.653 6.54545 10.9304 6.66039 11.135 6.86497C11.3396 7.06956 11.4545 7.34703 11.4545 7.63636H12C12.2893 7.63636 12.5668 7.52143 12.7714 7.31684C12.976 7.11226 13.0909 6.83478 13.0909 6.54545V6C13.0909 5.71067 12.976 5.43319 12.7714 5.22861C12.5668 5.02402 12.2893 4.90909 12 4.90909Z" fill="#5DADEC"/>
<path d="M10.9091 8.72728C10.9091 9.0166 10.7942 9.29408 10.5896 9.49866C10.385 9.70325 10.1075 9.81818 9.81818 9.81818H7.09091C6.80158 9.81818 6.52411 9.70325 6.31952 9.49866C6.11493 9.29408 6 9.0166 6 8.72728V8.18182C6 7.89249 6.11493 7.61502 6.31952 7.41043C6.52411 7.20585 6.80158 7.09091 7.09091 7.09091H9.81818C10.1075 7.09091 10.385 7.20585 10.5896 7.41043C10.7942 7.61502 10.9091 7.89249 10.9091 8.18182V8.72728Z" fill="#E75A70"/>
<path d="M15.8182 17.4545C15.8182 17.7439 15.7032 18.0213 15.4987 18.2259C15.2941 18.4305 15.0166 18.5454 14.7273 18.5454H9.27273C8.9834 18.5454 8.70592 18.4305 8.50134 18.2259C8.29675 18.0213 8.18182 17.7439 8.18182 17.4545V14.7273C8.18182 14.4379 8.29675 14.1605 8.50134 13.9559C8.70592 13.7513 8.9834 13.6364 9.27273 13.6364H14.7273C15.0166 13.6364 15.2941 13.7513 15.4987 13.9559C15.7032 14.1605 15.8182 14.4379 15.8182 14.7273V17.4545Z" fill="#67757F"/>
<path d="M14.7273 16.9091C14.7273 17.0537 14.6698 17.1925 14.5675 17.2948C14.4652 17.3971 14.3265 17.4545 14.1818 17.4545H9.81818C9.67352 17.4545 9.53478 17.3971 9.43249 17.2948C9.33019 17.1925 9.27273 17.0537 9.27273 16.9091V15.2727C9.27273 15.1281 9.33019 14.9893 9.43249 14.887C9.53478 14.7847 9.67352 14.7273 9.81818 14.7273H14.1818C14.3265 14.7273 14.4652 14.7847 14.5675 14.887C14.6698 14.9893 14.7273 15.1281 14.7273 15.2727V16.9091Z" fill="#E1E8ED"/>
</svg>
