<svg width="24" height="24" viewBox="0 0 24 24" fill="none" xmlns="http://www.w3.org/2000/svg">
<path d="M19.6456 13.1896L11.6427 5.316C11.2838 4.95654 10.8125 4.90909 10.3418 4.90909H4.84527C3.83399 4.90909 3.27272 5.47036 3.27272 6.48163V11.9809C3.27272 12.4505 3.32127 12.9207 3.67963 13.2791L11.6182 21.282C11.785 21.4517 11.984 21.5865 12.2035 21.6786C12.4231 21.7706 12.6587 21.818 12.8967 21.818C13.1347 21.818 13.3704 21.7706 13.5899 21.6786C13.8094 21.5865 14.0084 21.4517 14.1753 21.282L19.662 15.7795C20.3765 15.0638 20.3602 13.9042 19.6456 13.1896V13.1896ZM6.77508 8.41145C6.69926 8.48731 6.60924 8.54749 6.51017 8.58855C6.41109 8.62962 6.30489 8.65077 6.19764 8.6508C6.09039 8.65082 5.98418 8.62972 5.88509 8.5887C5.78599 8.54768 5.69594 8.48755 5.62008 8.41172C5.54423 8.3359 5.48405 8.24588 5.44298 8.14681C5.40191 8.04773 5.38076 7.94153 5.38074 7.83428C5.38071 7.72703 5.40181 7.62082 5.44283 7.52173C5.48385 7.42263 5.54399 7.33258 5.61981 7.25672C5.77294 7.10353 5.98065 7.01743 6.19725 7.01738C6.41386 7.01733 6.62161 7.10333 6.77481 7.25645C6.92801 7.40958 7.0141 7.61729 7.01416 7.8339C7.01421 8.0505 6.92821 8.25825 6.77508 8.41145V8.41145Z" fill="#FFD983"/>
<path d="M7.61018 6.42108C7.42477 6.23545 7.20459 6.0882 6.96223 5.98772C6.71987 5.88725 6.46009 5.83554 6.19773 5.83554C5.93537 5.83554 5.67558 5.88725 5.43322 5.98772C5.19086 6.0882 4.97068 6.23545 4.78527 6.42108C4.59666 6.60591 4.44657 6.8263 4.34366 7.06951C4.24076 7.31271 4.18709 7.57391 4.18576 7.83798C4.18442 8.10206 4.23545 8.36378 4.33589 8.60801C4.43634 8.85224 4.5842 9.07414 4.77093 9.26087C4.95766 9.4476 5.17956 9.59547 5.42379 9.69591C5.66802 9.79635 5.92974 9.84738 6.19382 9.84605C6.4579 9.84471 6.71909 9.79104 6.96229 9.68814C7.2055 9.58524 7.42589 9.43514 7.61073 9.24653C7.98518 8.87169 8.19546 8.36351 8.19536 7.83369C8.19526 7.30387 7.98477 6.79577 7.61018 6.42108V6.42108ZM6.77564 8.41198C6.70026 8.49033 6.61002 8.55286 6.51018 8.59591C6.41035 8.63897 6.30293 8.66168 6.19422 8.66271C6.0855 8.66375 5.97767 8.6431 5.87704 8.60196C5.7764 8.56082 5.68498 8.50003 5.60812 8.42314C5.53126 8.34624 5.47051 8.25479 5.42942 8.15413C5.38833 8.05348 5.36772 7.94564 5.36881 7.83692C5.3699 7.72821 5.39266 7.6208 5.43576 7.52099C5.47886 7.42117 5.54143 7.33096 5.61982 7.25562C5.77416 7.10727 5.98054 7.02537 6.1946 7.02752C6.40867 7.02967 6.61336 7.11568 6.7647 7.2671C6.91604 7.41851 7.00196 7.62324 7.00401 7.83731C7.00605 8.05138 6.92406 8.25771 6.77564 8.41198V8.41198Z" fill="#D99E82"/>
<path d="M6.82199 7.90963C6.71972 8.01198 6.58097 8.06951 6.43628 8.06956C6.29158 8.06961 6.1528 8.01218 6.05045 7.90991C5.9481 7.80763 5.89057 7.66888 5.89052 7.52419C5.89047 7.3795 5.9479 7.24071 6.05017 7.13836L10.6784 2.51018C10.729 2.4595 10.7891 2.41929 10.8553 2.39185C10.9215 2.36441 10.9924 2.35028 11.0641 2.35025C11.1357 2.35022 11.2067 2.36431 11.2729 2.39171C11.3391 2.4191 11.3992 2.45926 11.4499 2.50991C11.5006 2.56055 11.5408 2.62068 11.5682 2.68686C11.5957 2.75304 11.6098 2.82398 11.6098 2.89562C11.6099 2.96727 11.5958 3.03822 11.5684 3.10442C11.541 3.17062 11.5008 3.23077 11.4502 3.28145L6.82199 7.90963V7.90963Z" fill="#C1694F"/>
</svg>
