<svg width="24" height="24" viewBox="0 0 24 24" fill="none" xmlns="http://www.w3.org/2000/svg">
<path d="M20.7676 12L18.132 13.6364H17.4546V11.4545C17.4546 11.4065 17.4436 11.3624 17.4404 11.3149C19.3287 10.8349 20.7273 9.12817 20.7273 7.0909C20.7273 5.93352 20.2675 4.82354 19.4491 4.00515C18.6307 3.18676 17.5208 2.72699 16.3634 2.72699C15.206 2.72699 14.096 3.18676 13.2776 4.00515C12.4592 4.82354 11.9995 5.93352 11.9995 7.0909C11.9995 7.8889 12.2242 8.63017 12.5989 9.27272H10.32C10.3456 9.09381 10.3636 8.91272 10.3636 8.72726C10.3636 7.71462 9.96137 6.74345 9.24532 6.0274C8.52928 5.31135 7.55811 4.90908 6.54546 4.90908C5.53282 4.90908 4.56165 5.31135 3.8456 6.0274C3.12955 6.74345 2.72728 7.71462 2.72728 8.72726C2.72773 9.44917 2.93298 10.1561 3.31919 10.7661C3.70539 11.376 4.25671 11.8638 4.9091 12.1729V18C4.9091 18.5786 5.13897 19.1336 5.54814 19.5428C5.95731 19.9519 6.51226 20.1818 7.09092 20.1818H15.2727C15.8514 20.1818 16.4063 19.9519 16.8155 19.5428C17.2247 19.1336 17.4546 18.5786 17.4546 18V16.3636H18.132L20.7676 18H21.2727V12H20.7676ZM17.8511 4.35108C18.3388 4.61625 18.7469 5.0069 19.0331 5.48265C19.3192 5.95839 19.4731 6.50194 19.4787 7.05708L17.5527 6.73635C17.494 6.53368 17.3845 6.34934 17.2347 6.20072L17.8511 4.35108V4.35108ZM17.3602 7.81035L19.2976 8.13326C19.1179 8.63574 18.8122 9.08365 18.4097 9.43407C18.0072 9.78449 17.5215 10.0257 16.9991 10.1345C16.7972 9.8705 16.5375 9.65629 16.2398 9.50835L16.5807 8.31381C16.8928 8.24562 17.1697 8.06679 17.3602 7.81035V7.81035ZM16.3636 3.97363C16.5175 3.97363 16.6675 3.98835 16.8153 4.01017L16.1984 5.86035C15.978 5.88981 15.7773 5.9749 15.6087 6.10363L13.8655 5.23199C14.1547 4.84176 14.5313 4.52469 14.9651 4.30617C15.3989 4.08765 15.8779 3.97377 16.3636 3.97363V3.97363ZM13.2464 7.0909C13.2464 6.78381 13.2927 6.48763 13.3751 6.20726L15.1173 7.07835L15.1162 7.0909C15.1162 7.44926 15.2869 7.76999 15.5367 7.99744L15.1724 9.27272H14.1518C13.573 8.69407 13.2473 7.90939 13.2464 7.0909V7.0909ZM8.28928 6.8809C8.54212 7.11744 8.74373 7.40335 8.88165 7.72094C9.01956 8.03852 9.09085 8.38102 9.0911 8.72726C9.0911 8.9149 9.06764 9.09654 9.02946 9.27272H7.69092C7.77001 9.1069 7.81801 8.92308 7.81801 8.72726C7.81818 8.47635 7.74375 8.23105 7.60419 8.02254L8.28928 6.8809ZM6.54546 6.18163C6.82855 6.18163 7.09637 6.2389 7.35055 6.32399L6.66546 7.46617C6.62564 7.46235 6.58637 7.45417 6.54546 7.45417C6.29455 7.454 6.04925 7.52843 5.84073 7.66799L4.6991 6.98344C4.93564 6.73061 5.22155 6.52899 5.53914 6.39108C5.85672 6.25316 6.19922 6.18187 6.54546 6.18163V6.18163ZM3.99983 8.72726C3.99983 8.44417 4.0571 8.17635 4.14219 7.92163L5.28492 8.60726C5.2811 8.64708 5.27292 8.68581 5.27292 8.72726C5.27292 9.13635 5.46928 9.49635 5.76928 9.72926C5.42591 9.9927 5.16895 10.3526 5.03128 10.7629C4.40892 10.2987 3.99983 9.56344 3.99983 8.72726Z" fill="#31373D"/>
<path d="M15.2727 13.6363C15.8752 13.6363 16.3636 13.1479 16.3636 12.5454C16.3636 11.9429 15.8752 11.4545 15.2727 11.4545C14.6702 11.4545 14.1818 11.9429 14.1818 12.5454C14.1818 13.1479 14.6702 13.6363 15.2727 13.6363Z" fill="#8899A6"/>
<path d="M7.09091 13.6363C7.6934 13.6363 8.18182 13.1479 8.18182 12.5454C8.18182 11.9429 7.6934 11.4545 7.09091 11.4545C6.48842 11.4545 6 11.9429 6 12.5454C6 13.1479 6.48842 13.6363 7.09091 13.6363Z" fill="#8899A6"/>
<path d="M15.2727 16.9091C15.2727 16.6198 15.1578 16.3423 14.9532 16.1377C14.7486 15.9331 14.4711 15.8182 14.1818 15.8182H8.18182C7.89249 15.8182 7.61502 15.9331 7.41043 16.1377C7.20585 16.3423 7.09091 16.6198 7.09091 16.9091V20.1818C7.09091 20.4711 7.20585 20.7486 7.41043 20.9532C7.61502 21.1578 7.89249 21.2727 8.18182 21.2727H14.1818C14.4711 21.2727 14.7486 21.1578 14.9532 20.9532C15.1578 20.7486 15.2727 20.4711 15.2727 20.1818V16.9091Z" fill="#8899A6"/>
</svg>
