<svg width="50" height="40" viewBox="0 0 50 40" fill="none" xmlns="http://www.w3.org/2000/svg">
<path d="M47 0H3C1.34315 0 0 1.34315 0 3V37C0 38.6569 1.34315 40 3 40H47C48.6569 40 50 38.6569 50 37V3C50 1.34315 48.6569 0 47 0Z" fill="black"/>
<path d="M19.099 23.508C19.099 24.818 18.676 25.896 17.829 26.742C16.991 27.581 15.887 28 14.517 28H10.114V12.277H14.606C15.916 12.277 16.991 12.7 17.83 13.547C18.676 14.385 19.099 15.459 19.099 16.77V23.508ZM16.291 23.508V16.77C16.291 16.208 16.104 15.789 15.729 15.512C15.355 15.227 14.981 15.085 14.607 15.085H12.922V25.192H14.606C14.981 25.192 15.356 25.054 15.729 24.777C16.104 24.492 16.291 24.069 16.291 23.507V23.508ZM28.185 28H22.289C21.727 28 21.259 27.813 20.885 27.439C20.51 27.064 20.323 26.596 20.323 26.035V14.243C20.323 13.681 20.51 13.213 20.885 12.839C21.259 12.464 21.727 12.277 22.289 12.277H28.185V15.085H23.13V18.735H26.218V21.543H23.13V25.193H28.184V28H28.185ZM35.305 28C34.369 28 33.621 27.345 33.059 26.035L29.409 12.277H32.498L35.305 23.081L38.113 12.277H41.2L37.55 26.035C36.99 27.345 36.241 28 35.305 28Z" fill="white"/>
</svg>
