<svg width="24" height="24" viewBox="0 0 24 24" fill="none" xmlns="http://www.w3.org/2000/svg">
<path d="M2 12C2 6.477 6.477 2 12 2C17.523 2 22 6.477 22 12C22 17.523 17.523 22 12 22H2L4.929 19.071C3.99904 18.1434 3.26154 17.0413 2.75888 15.8278C2.25623 14.6143 1.99833 13.3135 2 12V12ZM6.828 20H12C13.5823 20 15.129 19.5308 16.4446 18.6518C17.7602 17.7727 18.7855 16.5233 19.391 15.0615C19.9965 13.5997 20.155 11.9911 19.8463 10.4393C19.5376 8.88743 18.7757 7.46197 17.6569 6.34315C16.538 5.22433 15.1126 4.4624 13.5607 4.15372C12.0089 3.84504 10.4003 4.00346 8.93853 4.60896C7.47672 5.21447 6.22729 6.23984 5.34824 7.55544C4.46919 8.87103 4 10.4177 4 12C4 14.152 4.851 16.165 6.343 17.657L7.757 19.071L6.828 20V20ZM8 13H16C16 14.0609 15.5786 15.0783 14.8284 15.8284C14.0783 16.5786 13.0609 17 12 17C10.9391 17 9.92172 16.5786 9.17157 15.8284C8.42143 15.0783 8 14.0609 8 13V13Z" fill="black"/>
</svg>
